# Blender 3.5.1
# www.blender.org
mtllib kolumna_triangulated.mtl
o SketchUp.307
v 7.586253 0.372876 -0.119466
v 7.586253 1.769116 -0.119466
v 7.609369 0.372876 -0.117189
v 7.609369 1.769116 -0.117189
v 7.631598 0.372876 -0.110447
v 7.631598 1.769116 -0.110447
v 7.652082 0.372876 -0.099497
v 7.652082 1.769116 -0.099497
v 7.670037 0.372876 -0.084762
v 7.670037 1.769116 -0.084762
v 7.684773 0.372876 -0.066806
v 7.684773 1.769116 -0.066806
v 7.695723 0.372876 -0.046321
v 7.695723 1.769116 -0.046321
v 7.702466 0.372876 -0.024093
v 7.702466 1.769116 -0.024093
v 7.704742 0.372876 -0.000977
v 7.704742 1.769116 -0.000977
v 7.702466 0.372876 0.022139
v 7.702466 1.769116 0.022139
v 7.695723 0.372876 0.044367
v 7.695723 1.769116 0.044367
v 7.684773 0.372876 0.064852
v 7.684773 1.769116 0.064852
v 7.670037 0.372876 0.082808
v 7.670037 1.769116 0.082808
v 7.652082 0.372876 0.097543
v 7.652082 1.769116 0.097543
v 7.631598 0.372876 0.108493
v 7.631598 1.769116 0.108493
v 7.609369 0.372876 0.115235
v 7.609369 1.769116 0.115235
v 7.586253 0.372876 0.117512
v 7.586253 1.769116 0.117512
v 7.563137 0.372876 0.115236
v 7.563137 1.769116 0.115236
v 7.540909 0.372876 0.108493
v 7.540909 1.769116 0.108493
v 7.520424 0.372876 0.097543
v 7.520424 1.769116 0.097543
v 7.502469 0.372876 0.082808
v 7.502469 1.769116 0.082808
v 7.487733 0.372876 0.064852
v 7.487733 1.769116 0.064852
v 7.476784 0.372876 0.044367
v 7.476784 1.769116 0.044367
v 7.470040 0.372876 0.022139
v 7.470040 1.769116 0.022139
v 7.467764 0.372876 -0.000977
v 7.467764 1.769116 -0.000977
v 7.470040 0.372876 -0.024093
v 7.470040 1.769116 -0.024093
v 7.476784 0.372876 -0.046321
v 7.476784 1.769116 -0.046321
v 7.487733 0.372876 -0.066806
v 7.487733 1.769116 -0.066806
v 7.502469 0.372876 -0.084762
v 7.502469 1.769116 -0.084762
v 7.520425 0.372876 -0.099497
v 7.520425 1.769116 -0.099497
v 7.540910 0.372876 -0.110447
v 7.540910 1.769116 -0.110447
v 7.563137 0.372876 -0.117189
v 7.563137 1.769116 -0.117189
vn -0.0000 0.6857 -0.7279
vn 0.1420 -0.6857 -0.7139
vn -0.0000 -0.6857 -0.7279
vn 0.1420 0.6857 -0.7139
vn 0.2785 -0.6857 -0.6725
vn 0.2786 0.6857 -0.6725
vn 0.4044 -0.6857 -0.6052
vn 0.4044 0.6857 -0.6052
vn 0.5147 -0.6857 -0.5147
vn 0.5147 0.6857 -0.5147
vn 0.6052 -0.6857 -0.4044
vn 0.6052 0.6857 -0.4044
vn 0.6725 -0.6857 -0.2786
vn 0.6725 0.6857 -0.2785
vn 0.7139 -0.6857 -0.1420
vn 0.7139 0.6857 -0.1420
vn 0.7279 -0.6857 -0.0000
vn 0.7279 0.6857 -0.0000
vn 0.7139 -0.6857 0.1420
vn 0.7139 0.6857 0.1420
vn 0.6725 -0.6857 0.2786
vn 0.6725 0.6857 0.2786
vn 0.6052 -0.6857 0.4044
vn 0.6052 0.6857 0.4044
vn 0.5147 -0.6857 0.5147
vn 0.5147 0.6857 0.5147
vn 0.4044 -0.6857 0.6052
vn 0.4044 0.6857 0.6052
vn 0.2786 -0.6857 0.6725
vn 0.2785 0.6857 0.6725
vn 0.1420 -0.6857 0.7139
vn 0.1420 0.6857 0.7139
vn -0.0000 -0.6857 0.7279
vn -0.0000 0.6857 0.7279
vn -0.1420 -0.6857 0.7139
vn -0.1420 0.6857 0.7139
vn -0.2786 -0.6857 0.6725
vn -0.2785 0.6857 0.6725
vn -0.4044 -0.6857 0.6052
vn -0.4044 0.6857 0.6052
vn -0.5147 -0.6857 0.5147
vn -0.5147 0.6857 0.5147
vn -0.6052 -0.6857 0.4044
vn -0.6052 0.6857 0.4044
vn -0.6725 -0.6857 0.2786
vn -0.6725 0.6857 0.2785
vn -0.7139 -0.6857 0.1420
vn -0.7139 0.6857 0.1420
vn -0.7279 -0.6857 -0.0000
vn -0.7279 0.6857 -0.0000
vn -0.7139 -0.6857 -0.1420
vn -0.7139 0.6857 -0.1420
vn -0.6725 -0.6857 -0.2785
vn -0.6725 0.6857 -0.2786
vn -0.6052 -0.6857 -0.4044
vn -0.6052 0.6857 -0.4044
vn -0.5147 -0.6857 -0.5147
vn -0.5147 0.6857 -0.5147
vn -0.4044 -0.6857 -0.6052
vn -0.4044 0.6857 -0.6052
vn -0.2786 -0.6857 -0.6725
vn -0.1420 0.6857 -0.7139
vn -0.1420 -0.6857 -0.7139
vn -0.2785 0.6857 -0.6725
vt 0.040965 0.000000
vt 0.616037 0.150055
vt 0.627801 0.307200
vt 0.040965 1.000000
vt 0.025596 0.000000
vt 0.602205 0.159297
vt 0.025596 1.000000
vt 0.637044 0.293367
vt 0.011764 0.000000
vt 0.586835 0.165664
vt 0.011764 1.000000
vt 0.643410 0.277997
vt 0.477746 0.000000
vt 0.000000 0.000000
vt 0.570518 0.168909
vt 0.000000 1.000000
vt 0.477746 1.000000
vt 0.646655 0.261681
vt 0.463914 0.000000
vt 0.553882 0.168909
vt 0.463914 1.000000
vt 0.646655 0.245045
vt 0.448544 0.000000
vt 0.537566 0.165663
vt 0.448544 1.000000
vt 0.643409 0.228729
vt 0.432228 0.000000
vt 0.522196 0.159297
vt 0.432228 1.000000
vt 0.637043 0.213359
vt 0.415592 0.000000
vt 0.508364 0.150054
vt 0.415592 1.000000
vt 0.627801 0.199527
vt 0.399275 0.000000
vt 0.496600 0.138291
vt 0.399275 1.000000
vt 0.616037 0.187763
vt 0.383906 0.000000
vt 0.487358 0.124458
vt 0.383906 1.000000
vt 0.602205 0.178521
vt 0.250636 1.000000
vt 0.370073 0.000000
vt 0.480992 0.109089
vt 0.370073 1.000000
vt 0.250636 0.000000
vt 0.586835 0.172155
vt 0.262400 1.000000
vt 0.477746 0.092772
vt 0.262400 0.000000
vt 0.570518 0.168909
vt 0.276232 1.000000
vt 0.477746 0.076136
vt 0.276232 0.000000
vt 0.553882 0.168909
vt 0.291602 1.000000
vt 0.480992 0.059820
vt 0.291602 0.000000
vt 0.537566 0.172155
vt 0.307918 1.000000
vt 0.487358 0.044450
vt 0.307918 0.000000
vt 0.522196 0.178521
vt 0.324554 1.000000
vt 0.496601 0.030618
vt 0.324554 0.000000
vt 0.508364 0.187764
vt 0.340871 1.000000
vt 0.508364 0.018854
vt 0.340871 0.000000
vt 0.496601 0.199527
vt 0.356241 1.000000
vt 0.522197 0.009612
vt 0.356241 0.000000
vt 0.487358 0.213360
vt 0.131200 1.000000
vt 0.370073 1.000000
vt 0.537567 0.003245
vt 0.370073 0.000000
vt 0.131200 0.000000
vt 0.480992 0.228729
vt 0.142963 1.000000
vt 0.553883 0.000000
vt 0.142963 0.000000
vt 0.477746 0.245046
vt 0.156796 1.000000
vt 0.570519 0.000000
vt 0.156796 0.000000
vt 0.477746 0.261682
vt 0.172166 1.000000
vt 0.586836 0.003246
vt 0.172166 0.000000
vt 0.480992 0.277998
vt 0.188482 1.000000
vt 0.602205 0.009612
vt 0.188482 0.000000
vt 0.487358 0.293368
vt 0.205118 1.000000
vt 0.616037 0.018855
vt 0.205118 0.000000
vt 0.496601 0.307200
vt 0.221434 1.000000
vt 0.627801 0.030618
vt 0.221434 0.000000
vt 0.508364 0.318964
vt 0.236804 1.000000
vt 0.637044 0.044451
vt 0.236804 0.000000
vt 0.522197 0.328206
vt 0.131200 0.000000
vt 0.250637 1.000000
vt 0.643409 0.059821
vt 0.250637 0.000000
vt 0.131200 1.000000
vt 0.537567 0.334572
vt 0.119436 0.000000
vt 0.646655 0.076137
vt 0.119436 1.000000
vt 0.553883 0.337818
vt 0.105604 0.000000
vt 0.646655 0.092773
vt 0.105604 1.000000
vt 0.570519 0.337818
vt 0.090234 0.000000
vt 0.643409 0.109090
vt 0.090234 1.000000
vt 0.586836 0.334572
vt 0.073918 0.000000
vt 0.637043 0.124459
vt 0.602205 0.328206
vt 0.073918 1.000000
vt 0.057282 0.000000
vt 0.627800 0.138291
vt 0.616038 0.318963
vt 0.057282 1.000000
s 1
usemtl material.002
f 2/4/1 3/5/2 1/1/3
f 4/7/4 5/9/5 3/5/2
f 6/11/6 7/14/7 5/9/5
f 8/17/8 9/19/9 7/13/7
f 10/21/10 11/23/11 9/19/9
f 12/25/12 13/27/13 11/23/11
f 14/29/14 15/31/15 13/27/13
f 16/33/16 17/35/17 15/31/15
f 18/37/18 19/39/19 17/35/17
f 20/41/20 21/44/21 19/39/19
f 22/47/22 23/49/23 21/43/21
f 24/51/24 25/53/25 23/49/23
f 26/55/26 27/57/27 25/53/25
f 28/59/28 29/61/29 27/57/27
f 30/63/30 31/65/31 29/61/29
f 32/67/32 33/69/33 31/65/31
f 34/71/34 35/73/35 33/69/33
f 36/75/36 37/78/37 35/73/35
f 38/81/38 39/83/39 37/77/37
f 40/85/40 41/87/41 39/83/39
f 42/89/42 43/91/43 41/87/41
f 44/93/44 45/95/45 43/91/43
f 46/97/46 47/99/47 45/95/45
f 48/101/48 49/103/49 47/99/47
f 50/105/50 51/107/51 49/103/49
f 52/109/52 53/112/53 51/107/51
f 54/115/54 55/117/55 53/111/53
f 56/119/56 57/121/57 55/117/55
f 58/123/58 59/125/59 57/121/57
f 60/127/60 61/129/61 59/125/59
f 54/116/54 38/82/38 22/48/22
f 64/136/62 1/1/3 63/133/63
f 62/132/64 63/133/63 61/129/61
f 55/118/55 63/134/63 31/66/31
f 2/4/1 4/7/4 3/5/2
f 4/7/4 6/11/6 5/9/5
f 6/11/6 8/16/8 7/14/7
f 8/17/8 10/21/10 9/19/9
f 10/21/10 12/25/12 11/23/11
f 12/25/12 14/29/14 13/27/13
f 14/29/14 16/33/16 15/31/15
f 16/33/16 18/37/18 17/35/17
f 18/37/18 20/41/20 19/39/19
f 20/41/20 22/46/22 21/44/21
f 22/47/22 24/51/24 23/49/23
f 24/51/24 26/55/26 25/53/25
f 26/55/26 28/59/28 27/57/27
f 28/59/28 30/63/30 29/61/29
f 30/63/30 32/67/32 31/65/31
f 32/67/32 34/71/34 33/69/33
f 34/71/34 36/75/36 35/73/35
f 36/75/36 38/80/38 37/78/37
f 38/81/38 40/85/40 39/83/39
f 40/85/40 42/89/42 41/87/41
f 42/89/42 44/93/44 43/91/43
f 44/93/44 46/97/46 45/95/45
f 46/97/46 48/101/48 47/99/47
f 48/101/48 50/105/50 49/103/49
f 50/105/50 52/109/52 51/107/51
f 52/109/52 54/114/54 53/112/53
f 54/115/54 56/119/56 55/117/55
f 56/119/56 58/123/58 57/121/57
f 58/123/58 60/127/60 59/125/59
f 60/127/60 62/132/64 61/129/61
f 6/12/6 4/8/4 62/131/64
f 4/8/4 2/3/1 62/131/64
f 2/3/1 64/135/62 62/131/64
f 62/131/64 60/128/60 54/116/54
f 60/128/60 58/124/58 54/116/54
f 58/124/58 56/120/56 54/116/54
f 54/116/54 52/110/52 50/106/50
f 50/106/50 48/102/48 54/116/54
f 48/102/48 46/98/46 54/116/54
f 46/98/46 44/94/44 42/90/42
f 42/90/42 40/86/40 38/82/38
f 38/82/38 36/76/36 34/72/34
f 34/72/34 32/68/32 30/64/30
f 30/64/30 28/60/28 26/56/26
f 26/56/26 24/52/24 30/64/30
f 24/52/24 22/48/22 30/64/30
f 22/48/22 20/42/20 18/38/18
f 18/38/18 16/34/16 14/30/14
f 14/30/14 12/26/12 6/12/6
f 12/26/12 10/22/10 6/12/6
f 10/22/10 8/18/8 6/12/6
f 46/98/46 42/90/42 54/116/54
f 42/90/42 38/82/38 54/116/54
f 38/82/38 34/72/34 22/48/22
f 34/72/34 30/64/30 22/48/22
f 22/48/22 18/38/18 14/30/14
f 6/12/6 62/131/64 54/116/54
f 22/48/22 14/30/14 6/12/6
f 6/12/6 54/116/54 22/48/22
f 64/136/62 2/4/1 1/1/3
f 62/132/64 64/136/62 63/133/63
f 63/134/63 1/2/3 3/6/2
f 3/6/2 5/10/5 7/15/7
f 7/15/7 9/20/9 11/24/11
f 11/24/11 13/28/13 15/32/15
f 15/32/15 17/36/17 19/40/19
f 19/40/19 21/45/21 15/32/15
f 21/45/21 23/50/23 15/32/15
f 23/50/23 25/54/25 31/66/31
f 25/54/25 27/58/27 31/66/31
f 27/58/27 29/62/29 31/66/31
f 31/66/31 33/70/33 39/84/39
f 33/70/33 35/74/35 39/84/39
f 35/74/35 37/79/37 39/84/39
f 39/84/39 41/88/41 47/100/47
f 41/88/41 43/92/43 47/100/47
f 43/92/43 45/96/45 47/100/47
f 47/100/47 49/104/49 51/108/51
f 51/108/51 53/113/53 47/100/47
f 53/113/53 55/118/55 47/100/47
f 55/118/55 57/122/57 59/126/59
f 59/126/59 61/130/61 63/134/63
f 63/134/63 3/6/2 7/15/7
f 7/15/7 11/24/11 63/134/63
f 11/24/11 15/32/15 63/134/63
f 55/118/55 59/126/59 63/134/63
f 15/32/15 23/50/23 63/134/63
f 23/50/23 31/66/31 63/134/63
f 31/66/31 39/84/39 47/100/47
f 47/100/47 55/118/55 31/66/31
