# Blender 3.5.1
# www.blender.org
mtllib kolumna_romviewbounds.mtl
o SketchUp.353
v 12.205708 0.408116 -0.857937
v 12.205708 1.804356 -0.857937
v 12.228825 0.408116 -0.855660
v 12.228825 1.804356 -0.855660
v 12.251052 0.408116 -0.848918
v 12.251052 1.804356 -0.848918
v 12.271537 0.408116 -0.837968
v 12.271537 1.804356 -0.837968
v 12.289493 0.408116 -0.823232
v 12.289493 1.804356 -0.823232
v 12.304228 0.408116 -0.805277
v 12.304228 1.804356 -0.805277
v 12.315178 0.408116 -0.784792
v 12.315178 1.804356 -0.784792
v 12.321920 0.408116 -0.762564
v 12.321920 1.804356 -0.762564
v 12.324197 0.408116 -0.739448
v 12.324197 1.804356 -0.739448
v 12.321920 0.408116 -0.716332
v 12.321920 1.804356 -0.716332
v 12.315178 0.408116 -0.694104
v 12.315178 1.804356 -0.694104
v 12.304228 0.408116 -0.673619
v 12.304228 1.804356 -0.673619
v 12.289493 0.408116 -0.655663
v 12.289493 1.804356 -0.655663
v 12.271537 0.408116 -0.640928
v 12.271537 1.804356 -0.640928
v 12.251052 0.408116 -0.629978
v 12.251052 1.804356 -0.629978
v 12.228825 0.408116 -0.623235
v 12.228825 1.804356 -0.623235
v 12.205708 0.408116 -0.620959
v 12.205708 1.804356 -0.620959
v 12.182591 0.408116 -0.623235
v 12.182591 1.804356 -0.623235
v 12.160364 0.408116 -0.629978
v 12.160364 1.804356 -0.629978
v 12.139878 0.408116 -0.640928
v 12.139878 1.804356 -0.640928
v 12.121923 0.408116 -0.655663
v 12.121923 1.804356 -0.655663
v 12.107188 0.408116 -0.673619
v 12.107188 1.804356 -0.673619
v 12.096238 0.408116 -0.694104
v 12.096238 1.804356 -0.694104
v 12.089496 0.408116 -0.716332
v 12.089496 1.804356 -0.716332
v 12.087219 0.408116 -0.739448
v 12.087219 1.804356 -0.739448
v 12.089496 0.408116 -0.762564
v 12.089496 1.804356 -0.762564
v 12.096238 0.408116 -0.784792
v 12.096238 1.804356 -0.784792
v 12.107188 0.408116 -0.805277
v 12.107188 1.804356 -0.805277
v 12.121923 0.408116 -0.823232
v 12.121923 1.804356 -0.823232
v 12.139878 0.408116 -0.837968
v 12.139878 1.804356 -0.837968
v 12.160364 0.408116 -0.848918
v 12.160364 1.804356 -0.848918
v 12.182591 0.408116 -0.855660
v 12.182591 1.804356 -0.855660
vn -0.0000 -0.6857 -0.7279
vn -0.0000 0.6857 -0.7279
vn 0.1420 0.6857 -0.7139
vn 0.1420 -0.6857 -0.7139
vn 0.2786 0.6857 -0.6725
vn 0.2786 -0.6857 -0.6725
vn 0.4044 0.6857 -0.6052
vn 0.4044 -0.6857 -0.6052
vn 0.5147 0.6857 -0.5147
vn 0.5147 -0.6857 -0.5147
vn 0.6052 0.6857 -0.4044
vn 0.6052 -0.6857 -0.4044
vn 0.6725 0.6857 -0.2785
vn 0.6725 -0.6857 -0.2785
vn 0.7139 0.6857 -0.1420
vn 0.7139 -0.6857 -0.1420
vn 0.7279 0.6857 -0.0000
vn 0.7279 -0.6857 -0.0000
vn 0.7139 0.6857 0.1420
vn 0.7139 -0.6857 0.1420
vn 0.6725 0.6857 0.2785
vn 0.6725 -0.6857 0.2785
vn 0.6052 0.6857 0.4044
vn 0.6052 -0.6857 0.4044
vn 0.5147 0.6857 0.5147
vn 0.5147 -0.6857 0.5147
vn 0.4044 0.6857 0.6052
vn 0.4044 -0.6857 0.6052
vn 0.2786 0.6857 0.6725
vn 0.2786 -0.6857 0.6725
vn 0.1420 0.6857 0.7139
vn 0.1420 -0.6857 0.7139
vn -0.0000 0.6857 0.7279
vn -0.0000 -0.6857 0.7279
vn -0.1420 0.6857 0.7139
vn -0.1420 -0.6857 0.7139
vn -0.2786 0.6857 0.6725
vn -0.2786 -0.6857 0.6725
vn -0.4044 0.6857 0.6052
vn -0.4044 -0.6857 0.6052
vn -0.5147 0.6857 0.5147
vn -0.5147 -0.6857 0.5147
vn -0.6052 0.6857 0.4044
vn -0.6052 -0.6857 0.4044
vn -0.6725 0.6857 0.2786
vn -0.6725 -0.6857 0.2786
vn -0.7139 0.6857 0.1420
vn -0.7139 -0.6857 0.1420
vn -0.7279 0.6857 -0.0000
vn -0.7279 -0.6857 -0.0000
vn -0.7139 0.6857 -0.1420
vn -0.7139 -0.6857 -0.1420
vn -0.6725 0.6857 -0.2786
vn -0.6725 -0.6857 -0.2786
vn -0.6052 0.6857 -0.4044
vn -0.6052 -0.6857 -0.4044
vn -0.5147 0.6857 -0.5147
vn -0.5147 -0.6857 -0.5147
vn -0.4044 0.6857 -0.6052
vn -0.4044 -0.6857 -0.6052
vn -0.2786 0.6857 -0.6725
vn -0.2786 -0.6857 -0.6725
vn -0.1420 0.6857 -0.7139
vn -0.1420 -0.6857 -0.7139
vt 0.000000 0.000000
vt 0.000000 0.000000
vt 0.000000 0.000000
vt 0.000000 0.000000
vt 0.000000 0.000000
vt 0.000000 0.000000
vt 0.000000 0.000000
vt 0.000000 0.000000
vt 0.000000 0.000000
vt 0.000000 0.000000
vt 0.000000 0.000000
vt 0.000000 0.000000
vt 0.000000 0.000000
vt 0.000000 0.000000
vt 0.000000 0.000000
vt 0.000000 0.000000
vt 0.000000 0.000000
vt 0.000000 0.000000
vt 0.000000 0.000000
vt 0.000000 0.000000
vt 0.000000 0.000000
vt 0.000000 0.000000
vt 0.000000 0.000000
vt 0.000000 0.000000
vt 0.000000 0.000000
vt 0.000000 0.000000
vt 0.000000 0.000000
vt 0.000000 0.000000
vt 0.000000 0.000000
vt 0.000000 0.000000
vt 0.000000 0.000000
vt 0.000000 0.000000
vt 0.000000 0.000000
vt 0.000000 0.000000
vt 0.000000 0.000000
vt 0.000000 0.000000
vt 0.000000 0.000000
vt 0.000000 0.000000
vt 0.000000 0.000000
vt 0.000000 0.000000
vt 0.000000 0.000000
vt 0.000000 0.000000
vt 0.000000 0.000000
vt 0.000000 0.000000
vt 0.000000 0.000000
vt 0.000000 0.000000
vt 0.000000 0.000000
vt 0.000000 0.000000
vt 0.000000 0.000000
vt 0.000000 0.000000
vt 0.000000 0.000000
vt 0.000000 0.000000
vt 0.000000 0.000000
vt 0.000000 0.000000
vt 0.000000 0.000000
vt 0.000000 0.000000
vt 0.000000 0.000000
vt 0.000000 0.000000
vt 0.000000 0.000000
vt 0.000000 0.000000
vt 0.000000 0.000000
vt 0.000000 0.000000
vt 0.000000 0.000000
vt 0.000000 0.000000
s 1
usemtl material.002
f 1/1/1 2/2/2 4/4/3 3/3/4
f 3/3/4 4/4/3 6/6/5 5/5/6
f 5/5/6 6/6/5 8/8/7 7/7/8
f 7/7/8 8/8/7 10/10/9 9/9/10
f 9/9/10 10/10/9 12/12/11 11/11/12
f 11/11/12 12/12/11 14/14/13 13/13/14
f 13/13/14 14/14/13 16/16/15 15/15/16
f 15/15/16 16/16/15 18/18/17 17/17/18
f 17/17/18 18/18/17 20/20/19 19/19/20
f 19/19/20 20/20/19 22/22/21 21/21/22
f 21/21/22 22/22/21 24/24/23 23/23/24
f 23/23/24 24/24/23 26/26/25 25/25/26
f 25/25/26 26/26/25 28/28/27 27/27/28
f 27/27/28 28/28/27 30/30/29 29/29/30
f 29/29/30 30/30/29 32/32/31 31/31/32
f 31/31/32 32/32/31 34/34/33 33/33/34
f 33/33/34 34/34/33 36/36/35 35/35/36
f 35/35/36 36/36/35 38/38/37 37/37/38
f 37/37/38 38/38/37 40/40/39 39/39/40
f 39/39/40 40/40/39 42/42/41 41/41/42
f 41/41/42 42/42/41 44/44/43 43/43/44
f 43/43/44 44/44/43 46/46/45 45/45/46
f 45/45/46 46/46/45 48/48/47 47/47/48
f 47/47/48 48/48/47 50/50/49 49/49/50
f 49/49/50 50/50/49 52/52/51 51/51/52
f 51/51/52 52/52/51 54/54/53 53/53/54
f 53/53/54 54/54/53 56/56/55 55/55/56
f 55/55/56 56/56/55 58/58/57 57/57/58
f 57/57/58 58/58/57 60/60/59 59/59/60
f 59/59/60 60/60/59 62/62/61 61/61/62
f 4/4/3 2/2/2 64/64/63 62/62/61 60/60/59 58/58/57 56/56/55 54/54/53 52/52/51 50/50/49 48/48/47 46/46/45 44/44/43 42/42/41 40/40/39 38/38/37 36/36/35 34/34/33 32/32/31 30/30/29 28/28/27 26/26/25 24/24/23 22/22/21 20/20/19 18/18/17 16/16/15 14/14/13 12/12/11 10/10/9 8/8/7 6/6/5
f 63/63/64 64/64/63 2/2/2 1/1/1
f 61/61/62 62/62/61 64/64/63 63/63/64
f 1/1/1 3/3/4 5/5/6 7/7/8 9/9/10 11/11/12 13/13/14 15/15/16 17/17/18 19/19/20 21/21/22 23/23/24 25/25/26 27/27/28 29/29/30 31/31/32 33/33/34 35/35/36 37/37/38 39/39/40 41/41/42 43/43/44 45/45/46 47/47/48 49/49/50 51/51/52 53/53/54 55/55/56 57/57/58 59/59/60 61/61/62 63/63/64
